<svg id="Calque_1" data-name="Calque 1" xmlns="http://www.w3.org/2000/svg" viewBox="0 0 66.4 64.9">
  <title>res-instagram-ico</title>
  <g id="IG">
    <g>
      <path d="M42.5,10.3c-9.1,0-10.2,0-13.7.2A27.63711,27.63711,0,0,0,20.7,12a17.31356,17.31356,0,0,0-5.9,3.7A15.4352,15.4352,0,0,0,11,21.4a21.327,21.327,0,0,0-1.5,7.9c-.3,3.6-.3,4.7-.3,13.5s0,9.9.2,13.4a26.33417,26.33417,0,0,0,1.5,7.9,14.66509,14.66509,0,0,0,3.8,5.7,15.91679,15.91679,0,0,0,5.9,3.7A24.72292,24.72292,0,0,0,28.7,75c3.6.2,4.7.2,13.7.2,9.1,0,10.2,0,13.7-.2a27.63681,27.63681,0,0,0,8.1-1.5A16.53208,16.53208,0,0,0,73.9,64a21.32689,21.32689,0,0,0,1.5-7.9c.2-3.5.2-4.6.2-13.4s0-9.9-.2-13.4a26.33416,26.33416,0,0,0-1.5-7.9,14.66506,14.66506,0,0,0-3.8-5.7A15.9167,15.9167,0,0,0,64.2,12a24.7229,24.7229,0,0,0-8.1-1.5C52.7,10.4,51.6,10.3,42.5,10.3Zm0,5.9c8.9,0,10,0,13.5.2a18.83416,18.83416,0,0,1,6.2,1.1A9.47541,9.47541,0,0,1,66,19.9a9.35262,9.35262,0,0,1,2.5,3.7,17.687,17.687,0,0,1,1.1,6c.2,3.4.2,4.4.2,13.1s0,9.7-.2,13.1a17.25241,17.25241,0,0,1-1.1,6A10.98916,10.98916,0,0,1,62.2,68,18.83411,18.83411,0,0,1,56,69.1c-3.5.2-4.6.2-13.5.2s-10,0-13.5-.2A18.8341,18.8341,0,0,1,22.8,68,9.47536,9.47536,0,0,1,19,65.6a9.35265,9.35265,0,0,1-2.5-3.7,17.6869,17.6869,0,0,1-1.1-6c-.2-3.4-.2-4.4-.2-13.1s0-9.7.2-13.1a17.25231,17.25231,0,0,1,1.1-6A9.35265,9.35265,0,0,1,19,20a10.21144,10.21144,0,0,1,3.8-2.4A18.83415,18.83415,0,0,1,29,16.5c3.6-.3,4.6-.3,13.5-.3" transform="translate(-9.2 -10.3)"/>
      <path d="M42.5,53.6A10.80405,10.80405,0,1,1,53.6,42.8h0A10.88665,10.88665,0,0,1,42.62912,53.60177Q42.56456,53.60126,42.5,53.6Zm0-27.5A16.70468,16.70468,0,1,0,59.6,42.8,16.88281,16.88281,0,0,0,42.53676,26.09957Z" transform="translate(-9.2 -10.3)"/>
      <path d="M64.3,25.5a3.99217,3.99217,0,0,1-4,3.9,3.92728,3.92728,0,0,1-3.99942-3.85379L56.3,25.5a3.99217,3.99217,0,0,1,4-3.9,3.92727,3.92727,0,0,1,3.99941,3.85379Z" transform="translate(-9.2 -10.3)"/>
    </g>
  </g>
</svg>
