<?xml version="1.0" encoding="utf-8"?>
<!-- Generator: Adobe Illustrator 20.1.0, SVG Export Plug-In . SVG Version: 6.00 Build 0)  -->
<svg version="1.1" id="Calque_1" xmlns="http://www.w3.org/2000/svg" xmlns:xlink="http://www.w3.org/1999/xlink" x="0px" y="0px"
	 viewBox="0 0 85 85" style="enable-background:new 0 0 85 85;" xml:space="preserve">
<style type="text/css">
	.st0{fill:none;}
</style>
<title>res-twitter-ico</title>
<g id="Calque_5">
	<rect x="0" y="0" class="st0" width="85" height="85"/>
</g>
<g id="TW">
	<path d="M27.3,75.8c30.9,0,47.8-25.6,47.8-47.8c0-0.7,0-1.4-0.1-2.2c3.3-2.4,6.1-5.3,8.4-8.7c-3.1,1.4-6.3,2.3-9.7,2.7
		c3.5-2.1,6.2-5.4,7.4-9.3c-3.3,2-6.9,3.4-10.7,4.1c-6.3-6.7-16.9-7.1-23.7-0.8C42.4,17.9,40.6,24,42,29.9
		c-13.5-0.7-26.1-7.1-34.7-17.6C2.9,20,5.1,29.8,12.5,34.8c-2.7-0.1-5.3-0.8-7.6-2.1v0.2c0,8,5.6,14.9,13.5,16.5
		c-2.5,0.7-5.1,0.8-7.6,0.3c2.2,6.9,8.5,11.6,15.7,11.7c-6,4.6-13.3,7.1-20.9,7.1c-1.3,0-2.7-0.1-4-0.2
		C9.3,73.2,18.2,75.8,27.3,75.8"/>
</g>
</svg>
